<?xml version="1.0" encoding="utf-8"?>
<!-- Generator: Adobe Illustrator 24.3.0, SVG Export Plug-In . SVG Version: 6.00 Build 0)  -->
<svg version="1.1" id="Layer_1" xmlns="http://www.w3.org/2000/svg" xmlns:xlink="http://www.w3.org/1999/xlink" x="0px" y="0px"
	 viewBox="0 0 209 54" style="enable-background:new 0 0 209 54;" xml:space="preserve">
<style type="text/css">
	.st0{fill-rule:evenodd;clip-rule:evenodd;fill:#FF3400;}
	.st1{fill:none;stroke:#FF3400;stroke-width:10;stroke-linecap:round;stroke-linejoin:round;}
	.st2{enable-background:new    ;}
	.st3{fill:#FFFFFF;}
	.st4{clip-path:url(#SVGID_2_);fill:url(#SVGID_3_);}
	.st5{clip-path:url(#SVGID_5_);fill:url(#SVGID_6_);}
	.st6{clip-path:url(#SVGID_8_);fill:url(#SVGID_9_);}
	.st7{clip-path:url(#SVGID_11_);fill:url(#SVGID_12_);}
</style>
<g>
	<g id="Polygon_1_copy_2-2_4_">
		<path class="st0" d="M46.8,45.6"/>
		<path class="st1" d="M46.8,45.6"/>
	</g>
	<g class="st2">
		<path class="st3" d="M83.8,20.5c-0.1-1.1-0.6-2-1.4-2.6c-0.8-0.6-2-0.9-3.4-0.9c-1,0-1.8,0.1-2.5,0.4c-0.7,0.3-1.2,0.6-1.5,1.1
			c-0.4,0.5-0.5,1-0.5,1.6c0,0.5,0.1,0.9,0.3,1.3c0.2,0.4,0.6,0.7,1,1c0.4,0.3,0.9,0.5,1.4,0.7c0.5,0.2,1.1,0.4,1.7,0.5l2.5,0.6
			c1.2,0.3,2.4,0.6,3.4,1.1c1,0.5,1.9,1,2.7,1.7c0.8,0.7,1.3,1.5,1.8,2.4c0.4,0.9,0.6,2,0.6,3.1c0,1.7-0.4,3.2-1.3,4.5
			c-0.9,1.3-2.1,2.2-3.8,2.9c-1.6,0.7-3.6,1-5.9,1c-2.3,0-4.3-0.3-6-1c-1.7-0.7-3-1.7-3.9-3.1s-1.4-3.1-1.5-5.1h5.8
			c0.1,0.9,0.3,1.7,0.8,2.4c0.5,0.6,1.1,1.1,1.9,1.4c0.8,0.3,1.7,0.5,2.8,0.5c1,0,1.9-0.1,2.6-0.4c0.7-0.3,1.3-0.7,1.7-1.2
			c0.4-0.5,0.6-1.1,0.6-1.8c0-0.6-0.2-1.2-0.6-1.6c-0.4-0.4-0.9-0.8-1.6-1.1c-0.7-0.3-1.6-0.6-2.6-0.8L76,28.3
			c-2.4-0.6-4.3-1.5-5.6-2.7c-1.4-1.2-2.1-2.9-2.1-5c0-1.7,0.4-3.2,1.4-4.5c0.9-1.3,2.2-2.3,3.8-3c1.6-0.7,3.5-1.1,5.5-1.1
			c2.1,0,3.9,0.4,5.5,1.1c1.6,0.7,2.8,1.7,3.7,3c0.9,1.3,1.3,2.8,1.4,4.4H83.8z"/>
		<path class="st3" d="M99.8,41.1c-1.4,0-2.6-0.2-3.6-0.7c-1.1-0.5-1.9-1.2-2.5-2.1c-0.6-0.9-0.9-2.1-0.9-3.5c0-1.2,0.2-2.2,0.6-3
			c0.4-0.8,1-1.4,1.8-1.9c0.7-0.5,1.6-0.9,2.5-1.1c1-0.2,2-0.4,3-0.5c1.2-0.1,2.2-0.3,3-0.4c0.8-0.1,1.3-0.3,1.6-0.5
			c0.3-0.2,0.5-0.6,0.5-1v-0.1c0-0.9-0.3-1.6-0.8-2c-0.5-0.5-1.3-0.7-2.3-0.7c-1.1,0-1.9,0.2-2.5,0.7c-0.6,0.5-1,1-1.2,1.7l-5.4-0.4
			c0.3-1.3,0.8-2.4,1.6-3.3c0.8-0.9,1.9-1.7,3.1-2.2c1.3-0.5,2.8-0.8,4.5-0.8c1.2,0,2.3,0.1,3.4,0.4c1.1,0.3,2,0.7,2.9,1.3
			c0.8,0.6,1.5,1.3,2,2.2c0.5,0.9,0.7,2,0.7,3.3v14.3h-5.6v-2.9H106c-0.3,0.7-0.8,1.2-1.4,1.7c-0.6,0.5-1.3,0.9-2.1,1.2
			C101.8,40.9,100.9,41.1,99.8,41.1z M101.5,37c0.9,0,1.6-0.2,2.3-0.5c0.7-0.3,1.2-0.8,1.6-1.4c0.4-0.6,0.6-1.3,0.6-2v-2.2
			c-0.2,0.1-0.4,0.2-0.8,0.3c-0.3,0.1-0.7,0.2-1.1,0.3c-0.4,0.1-0.8,0.1-1.2,0.2c-0.4,0.1-0.8,0.1-1.1,0.2c-0.7,0.1-1.3,0.3-1.8,0.5
			c-0.5,0.2-0.9,0.5-1.2,0.9c-0.3,0.4-0.4,0.8-0.4,1.4c0,0.8,0.3,1.4,0.9,1.8C99.9,36.8,100.6,37,101.5,37z"/>
		<path class="st3" d="M136.2,48.6h-5.9V37.3h-0.2c-0.3,0.6-0.7,1.2-1.2,1.7c-0.5,0.6-1.2,1.1-1.9,1.4c-0.8,0.4-1.8,0.6-2.9,0.6
			c-1.6,0-3.1-0.4-4.4-1.2c-1.3-0.8-2.3-2.1-3.1-3.7c-0.8-1.6-1.1-3.6-1.1-6c0-2.4,0.4-4.5,1.2-6.1s1.8-2.8,3.1-3.6
			c1.3-0.8,2.7-1.2,4.3-1.2c1.2,0,2.2,0.2,3,0.6c0.8,0.4,1.4,0.9,1.9,1.5c0.5,0.6,0.9,1.2,1.1,1.7h0.2v-3.6h5.8V48.6z M130.5,30.1
			c0-1.3-0.2-2.4-0.5-3.3c-0.3-0.9-0.9-1.6-1.5-2.2c-0.7-0.5-1.5-0.8-2.4-0.8c-1,0-1.8,0.3-2.4,0.8c-0.7,0.5-1.2,1.3-1.5,2.2
			c-0.3,0.9-0.5,2-0.5,3.2c0,1.2,0.2,2.3,0.5,3.3c0.3,0.9,0.8,1.7,1.5,2.2c0.7,0.5,1.5,0.8,2.4,0.8c0.9,0,1.7-0.3,2.4-0.8
			c0.7-0.5,1.2-1.2,1.5-2.2C130.3,32.4,130.5,31.3,130.5,30.1z"/>
		<path class="st3" d="M143.9,16.8c-0.9,0-1.6-0.3-2.2-0.9c-0.6-0.6-0.9-1.3-0.9-2.1c0-0.8,0.3-1.5,0.9-2.1c0.6-0.6,1.4-0.9,2.2-0.9
			c0.9,0,1.6,0.3,2.3,0.9c0.6,0.6,0.9,1.3,0.9,2.1c0,0.8-0.3,1.5-0.9,2.1C145.5,16.5,144.7,16.8,143.9,16.8z M140.9,40.7V19.5h5.9
			v21.2H140.9z"/>
		<path class="st3" d="M162.9,19.5v4.4h-13.1v-4.4H162.9z M152.8,40.7V18c0-1.5,0.3-2.8,0.9-3.8s1.4-1.8,2.5-2.3
			c1-0.5,2.2-0.8,3.6-0.8c0.9,0,1.7,0.1,2.5,0.2c0.8,0.1,1.3,0.3,1.7,0.4l-1,4.4c-0.2-0.1-0.5-0.1-0.8-0.2c-0.3-0.1-0.7-0.1-1-0.1
			c-0.9,0-1.5,0.2-1.8,0.6c-0.3,0.4-0.5,1-0.5,1.7v22.6H152.8z"/>
		<path class="st3" d="M170.1,48.6c-0.7,0-1.4-0.1-2.1-0.2c-0.6-0.1-1.2-0.3-1.6-0.4l1.3-4.4c1,0.3,1.9,0.4,2.6,0.3
			c0.7-0.2,1.3-0.7,1.7-1.7l0.3-0.9l-7.6-21.8h6.2l4.4,15.6h0.2l4.4-15.6l6.2,0L178,43c-0.4,1.1-0.9,2.1-1.6,3
			c-0.7,0.8-1.5,1.5-2.6,2C172.8,48.4,171.5,48.6,170.1,48.6z"/>
	</g>
</g>
<g>
	<g>
		<defs>
			<path id="SVGID_1_" d="M34.1,25.3h-4.9c-2.9,0-5.4-1.4-7.2-3.7s-2.4-5.1-1.8-7.8c-1.1,1.9-0.8,4.6-0.6,11.5c0.6,4.1,4,7,8,7.5H29
				h7.6c-1.8-1.6-2.9-3.8-2.9-6.2C34.1,26.1,34.1,25.6,34.1,25.3"/>
		</defs>
		<clipPath id="SVGID_2_">
			<use xlink:href="#SVGID_1_"  style="overflow:visible;"/>
		</clipPath>
		
			<linearGradient id="SVGID_3_" gradientUnits="userSpaceOnUse" x1="37.4669" y1="24.3568" x2="19.7621" y2="40.2192" gradientTransform="matrix(1 0 0 -1 0 56)">
			<stop  offset="0" style="stop-color:#0276DB"/>
			<stop  offset="1" style="stop-color:#C835F8"/>
		</linearGradient>
		<rect x="19.3" y="13.8" class="st4" width="17.5" height="18.8"/>
	</g>
</g>
<g>
	<g>
		<defs>
			<path id="SVGID_4_" d="M50.8,27.5h4.9c2.9,0,5.4,1.4,7.2,3.7s2.4,5.1,1.8,7.8c1.1-1.9,0.8-4.6,0.6-11.5c-0.6-4.1-4-7-8-7.5h-1.4
				h-7.6c1.8,1.6,2.9,3.8,2.9,6.2C51,26.7,51,27.2,50.8,27.5"/>
		</defs>
		<clipPath id="SVGID_5_">
			<use xlink:href="#SVGID_4_"  style="overflow:visible;"/>
		</clipPath>
		
			<linearGradient id="SVGID_6_" gradientUnits="userSpaceOnUse" x1="46.8885" y1="34.8334" x2="65.1046" y2="19.4824" gradientTransform="matrix(1 0 0 -1 0 56)">
			<stop  offset="0" style="stop-color:#0276DB"/>
			<stop  offset="1" style="stop-color:#C835F8"/>
		</linearGradient>
		<rect x="48.1" y="20.2" class="st5" width="17.5" height="18.8"/>
	</g>
</g>
<g>
	<g>
		<defs>
			<path id="SVGID_7_" d="M55.8,27.8c0,6.1-4.9,11.1-11.1,11.1H20c1.1,2.1,4.1,3.2,10.8,7c13.5,7.8,9.4,7.8,23.1,0
				c6.8-4,9.7-4.9,10.8-7c0.6-2.7,0-5.6-1.8-7.8s-4.3-3.5-7.2-3.7V27.8z"/>
		</defs>
		<clipPath id="SVGID_8_">
			<use xlink:href="#SVGID_7_"  style="overflow:visible;"/>
		</clipPath>
		
			<linearGradient id="SVGID_9_" gradientUnits="userSpaceOnUse" x1="62.2388" y1="26.2227" x2="30.8912" y2="8.8096" gradientTransform="matrix(1 0 0 -1 0 56)">
			<stop  offset="0" style="stop-color:#021B8D"/>
			<stop  offset="1" style="stop-color:#0276DB"/>
		</linearGradient>
		<rect x="20" y="27.5" class="st6" width="45.4" height="26.3"/>
	</g>
</g>
<g>
	<g>
		<defs>
			<path id="SVGID_10_" d="M29.2,25c0-6.1,4.9-11.1,11.1-11.1h24.8c-1.1-2.1-4.1-3.2-10.8-7C40.8-1,45-1,31.3,6.8
				c-6.8,4-9.7,4.9-10.8,7c-0.6,2.7,0,5.6,1.8,7.8s4.3,3.5,7.2,3.7V25H29.2z"/>
		</defs>
		<clipPath id="SVGID_11_">
			<use xlink:href="#SVGID_10_"  style="overflow:visible;"/>
		</clipPath>
		
			<linearGradient id="SVGID_12_" gradientUnits="userSpaceOnUse" x1="22.8633" y1="32.9372" x2="54.2109" y2="50.3511" gradientTransform="matrix(1 0 0 -1 0 56)">
			<stop  offset="0" style="stop-color:#021B8D"/>
			<stop  offset="1" style="stop-color:#0276DB"/>
		</linearGradient>
		<rect x="19.8" y="-1" class="st7" width="45.4" height="26.3"/>
	</g>
</g>
<path class="st0" d="M42.6,19c4.1,0,7.4,3.4,7.4,7.4c0,4.1-3.4,7.4-7.4,7.4c-4.1,0-7.4-3.4-7.4-7.4C35.2,22.3,38.4,19,42.6,19"/>
<path class="st0" d="M42.6,19.9c3.5,0,6.5,2.9,6.5,6.5c0,3.5-2.9,6.5-6.5,6.5c-3.5,0-6.5-2.9-6.5-6.5C36,22.9,38.9,19.9,42.6,19.9"
	/>
</svg>
